<svg xmlns="http://www.w3.org/2000/svg" width="199" height="73.257" viewBox="0 0 199 73.257">
  <defs>
    <style>
      .cls-1 {
        fill: #fff;
      }
    </style>
  </defs>
  <g id="Website_Autoland_Logo_mit_Claim_ZW_RGB_300x114px_weiß" data-name="Website_Autoland_Logo_mit Claim_ZW_RGB_300x114px_weiß" transform="translate(-2 -2.6)">
    <g id="Gruppe_48" data-name="Gruppe 48" transform="translate(2.067 64.36)">
      <path id="Pfad_120" data-name="Pfad 120" class="cls-1" d="M8.583,99.877a4.391,4.391,0,0,1-1.069,3.075,4.234,4.234,0,0,1-3.208,1.069H2.1V96H4.573a3.79,3.79,0,0,1,2.941,1.069,3.942,3.942,0,0,1,1.069,2.807Zm-1,.067a3,3,0,0,0-.8-2.339,3.576,3.576,0,0,0-2.406-.8H3.036v6.417H4.172a3.509,3.509,0,0,0,2.54-.8,3.46,3.46,0,0,0,.869-2.473Z" transform="translate(-2.1 -95.332)"/>
      <path id="Pfad_121" data-name="Pfad 121" class="cls-1" d="M16.741,104.983a2.822,2.822,0,0,1-2.139-.8,3.039,3.039,0,0,1-.8-2.273,3.626,3.626,0,0,1,.735-2.339,2.321,2.321,0,0,1,1.938-.869,2.468,2.468,0,0,1,1.8.735,2.637,2.637,0,0,1,.668,1.938v.6H14.736a2.2,2.2,0,0,0,.535,1.6,1.97,1.97,0,0,0,1.47.535,4.794,4.794,0,0,0,1.938-.4v.8a2.869,2.869,0,0,1-.936.267C17.476,104.782,17.142,104.983,16.741,104.983ZM16.474,99.5a1.611,1.611,0,0,0-1.2.468,2.042,2.042,0,0,0-.535,1.337h3.208a2,2,0,0,0-.4-1.337,1.246,1.246,0,0,0-1.069-.468Z" transform="translate(-5.98 -96.227)"/>
      <path id="Pfad_122" data-name="Pfad 122" class="cls-1" d="M24.736,98.834v3.877a1.207,1.207,0,0,0,1.4,1.4,1.81,1.81,0,0,0,1.4-.535,2.379,2.379,0,0,0,.468-1.671V98.767h.936v6.016h-.735l-.134-.8h-.134a1.965,1.965,0,0,1-.8.668,3.122,3.122,0,0,1-1.136.2,2.5,2.5,0,0,1-1.671-.535,2.268,2.268,0,0,1-.535-1.671V98.7l.936.134Z" transform="translate(-9.296 -96.227)"/>
      <path id="Pfad_123" data-name="Pfad 123" class="cls-1" d="M35.874,103.618a1.137,1.137,0,0,0,.468-.067.727.727,0,0,1,.334-.067v.668a4.259,4.259,0,0,1-.468.134,1.472,1.472,0,0,1-.535.067c-1.2,0-1.8-.6-1.8-1.872V98.939H33v-.468l.869-.4.4-1.27H34.8v1.4h1.8v.735H34.8v3.543a.976.976,0,0,0,.267.8,1.467,1.467,0,0,0,.8.334Z" transform="translate(-12.346 -95.597)"/>
      <path id="Pfad_124" data-name="Pfad 124" class="cls-1" d="M44.145,103.278a1.376,1.376,0,0,1-.668,1.27,3.411,3.411,0,0,1-1.8.468,3.541,3.541,0,0,1-1.872-.4v-.869a3.865,3.865,0,0,0,.936.334,5.16,5.16,0,0,0,1,.134,2.663,2.663,0,0,0,1.136-.2.735.735,0,0,0,.4-.668.8.8,0,0,0-.334-.6,9.55,9.55,0,0,0-1.2-.6,7.478,7.478,0,0,1-1.2-.535,2.034,2.034,0,0,1-.535-.535,1.347,1.347,0,0,1-.2-.735,1.313,1.313,0,0,1,.6-1.136,2.939,2.939,0,0,1,1.671-.4,5.036,5.036,0,0,1,1.938.4l-.334.735a4.316,4.316,0,0,0-1.671-.4,1.878,1.878,0,0,0-1,.2.682.682,0,0,0-.334.535.95.95,0,0,0,.134.4c.067.134.2.2.4.334a5.975,5.975,0,0,0,1.069.468,4.078,4.078,0,0,1,1.47.8,1.36,1.36,0,0,1,.4,1Z" transform="translate(-14.601 -96.26)"/>
      <path id="Pfad_125" data-name="Pfad 125" class="cls-1" d="M50.807,105.016a2.769,2.769,0,0,1-2.072-.8A3.015,3.015,0,0,1,48,101.941a3.5,3.5,0,0,1,.735-2.339,2.724,2.724,0,0,1,2.139-.8c.267,0,.6.067.869.067a1.583,1.583,0,0,1,.668.2l-.267.8c-.2-.067-.4-.134-.668-.2a2.508,2.508,0,0,0-.668-.067c-1.27,0-1.872.8-1.872,2.339a2.689,2.689,0,0,0,.468,1.738,1.594,1.594,0,0,0,1.337.6,4.245,4.245,0,0,0,1.537-.334v.8a3.046,3.046,0,0,1-1.47.267Z" transform="translate(-17.32 -96.26)"/>
      <path id="Pfad_126" data-name="Pfad 126" class="cls-1" d="M60.811,103.656V99.779a1.207,1.207,0,0,0-1.4-1.4,1.714,1.714,0,0,0-1.4.535,2.766,2.766,0,0,0-.468,1.671v3.141H56.6V95.1h.936v2.607a3,3,0,0,1-.067.8h.067a1.965,1.965,0,0,1,.8-.668,3.149,3.149,0,0,1,1.136-.267,2.381,2.381,0,0,1,1.671.535,2.107,2.107,0,0,1,.535,1.671v3.944l-.869-.067Z" transform="translate(-20.172 -95.033)"/>
      <path id="Pfad_127" data-name="Pfad 127" class="cls-1" d="M68.036,103.656H67.1V95.1h.936Z" transform="translate(-23.654 -95.033)"/>
      <path id="Pfad_128" data-name="Pfad 128" class="cls-1" d="M74.978,104.882l-.2-.869H74.71a3.334,3.334,0,0,1-.936.8,2.045,2.045,0,0,1-1.136.2,1.883,1.883,0,0,1-1.4-.468,1.757,1.757,0,0,1-.535-1.337c0-1.2,1-1.872,2.941-1.938l1.069-.067v-.267a1.7,1.7,0,0,0-.334-1.069,1.15,1.15,0,0,0-1-.334,3.774,3.774,0,0,0-1.738.468l-.267-.668a7.78,7.78,0,0,1,1-.4A3.127,3.127,0,0,1,73.44,98.8a2.2,2.2,0,0,1,1.6.468,2.03,2.03,0,0,1,.535,1.537v4.144l-.6-.067Zm-2.139-.6a1.632,1.632,0,0,0,1.8-1.8v-.535l-.936.067a3.19,3.19,0,0,0-1.6.334,1.011,1.011,0,0,0-.468.936,1.069,1.069,0,0,0,.267.735,1.73,1.73,0,0,0,.936.267Z" transform="translate(-24.848 -96.26)"/>
      <path id="Pfad_129" data-name="Pfad 129" class="cls-1" d="M85.111,104.882v-3.877a1.207,1.207,0,0,0-1.4-1.4,1.533,1.533,0,0,0-1.4.535,2.622,2.622,0,0,0-.468,1.671v3.141H80.9V98.934h.735l.134.8h.067a1.965,1.965,0,0,1,.8-.668,3.149,3.149,0,0,1,1.136-.267,2.5,2.5,0,0,1,1.671.535,2.107,2.107,0,0,1,.535,1.671v3.944l-.869-.067Z" transform="translate(-28.23 -96.26)"/>
      <path id="Pfad_130" data-name="Pfad 130" class="cls-1" d="M95.345,102.953h0a2.415,2.415,0,0,1-2.005.936,2.332,2.332,0,0,1-1.872-.8,3.3,3.3,0,0,1-.668-2.273,3.607,3.607,0,0,1,.668-2.339,2.146,2.146,0,0,1,1.872-.8,2.117,2.117,0,0,1,1.872.869h.067l-.067-.468V95.2h.936v8.556h-.735l-.067-.8Zm-1.8.134a1.684,1.684,0,0,0,1.4-.535,2.57,2.57,0,0,0,.4-1.6v-.2a2.545,2.545,0,0,0-.468-1.8,1.533,1.533,0,0,0-1.4-.535,1.552,1.552,0,0,0-1.27.6,2.689,2.689,0,0,0-.468,1.738,3.184,3.184,0,0,0,.4,1.738,1.64,1.64,0,0,0,1.4.6Z" transform="translate(-31.513 -95.066)"/>
      <path id="Pfad_131" data-name="Pfad 131" class="cls-1" d="M105.645,103.278a1.468,1.468,0,0,1-.6,1.27,3.239,3.239,0,0,1-1.8.468,3.541,3.541,0,0,1-1.872-.4v-.869a3.865,3.865,0,0,0,.936.334,5.244,5.244,0,0,0,.936.134,2.663,2.663,0,0,0,1.136-.2.735.735,0,0,0,.4-.668.8.8,0,0,0-.334-.6,9.55,9.55,0,0,0-1.2-.6,11.883,11.883,0,0,1-1.2-.535,1.368,1.368,0,0,1-.535-.535,1.347,1.347,0,0,1-.2-.735,1.313,1.313,0,0,1,.6-1.136,2.939,2.939,0,0,1,1.671-.4,5.036,5.036,0,0,1,1.938.4l-.334.735a4.316,4.316,0,0,0-1.671-.4,1.878,1.878,0,0,0-1,.2.682.682,0,0,0-.334.535.95.95,0,0,0,.134.4c.067.134.2.2.4.334a5.975,5.975,0,0,0,1.069.468,4.078,4.078,0,0,1,1.47.8,1.36,1.36,0,0,1,.4,1Z" transform="translate(-34.995 -96.26)"/>
      <path id="Pfad_132" data-name="Pfad 132" class="cls-1" d="M119.015,98.867v.6l-1.136.134a1.007,1.007,0,0,1,.267.535,2.843,2.843,0,0,1,.134.735,1.726,1.726,0,0,1-.6,1.4,2.5,2.5,0,0,1-1.671.535,1.472,1.472,0,0,1-.535-.067.9.9,0,0,0-.6.8.578.578,0,0,0,.2.4c.134.134.4.134.735.134h1.069a2.483,2.483,0,0,1,1.537.4,1.469,1.469,0,0,1,.535,1.2,1.711,1.711,0,0,1-.8,1.537,4.58,4.58,0,0,1-2.406.535,3.111,3.111,0,0,1-1.872-.468,1.515,1.515,0,0,1-.334-2.206,1.633,1.633,0,0,1,1-.535,1.772,1.772,0,0,1-.4-.334.72.72,0,0,1-.134-.535,1.078,1.078,0,0,1,.2-.6,3.82,3.82,0,0,1,.535-.468,1.561,1.561,0,0,1-.8-.668,1.961,1.961,0,0,1-.267-1.069,1.918,1.918,0,0,1,.6-1.537,2.569,2.569,0,0,1,1.738-.535,3.387,3.387,0,0,1,.869.134C116.943,98.867,119.015,98.867,119.015,98.867Zm-4.812,7.085a.768.768,0,0,0,.4.735,2.669,2.669,0,0,0,1.2.267,3.8,3.8,0,0,0,1.738-.334.949.949,0,0,0,.535-.936.738.738,0,0,0-.334-.668,2.285,2.285,0,0,0-1.136-.2h-1.136a2.214,2.214,0,0,0-1,.267c-.267.134-.334.468-.267.869Zm.468-5.147a1.322,1.322,0,0,0,.334.936,1.5,1.5,0,0,0,1,.334,1.181,1.181,0,0,0,1.337-1.27,1.25,1.25,0,0,0-1.4-1.337,1.384,1.384,0,0,0-1,.334,1.494,1.494,0,0,0-.267,1Z" transform="translate(-38.941 -96.26)"/>
      <path id="Pfad_133" data-name="Pfad 133" class="cls-1" d="M126.607,98.8a2.506,2.506,0,0,1,.735.067l-.134.869a2.508,2.508,0,0,0-.668-.067,1.646,1.646,0,0,0-1.27.6,2.2,2.2,0,0,0-.535,1.47v3.208H123.8V98.934h.735l.134,1.136h.067a3.7,3.7,0,0,1,.8-.936,1.472,1.472,0,0,1,1.069-.334Z" transform="translate(-42.456 -96.26)"/>
      <path id="Pfad_134" data-name="Pfad 134" class="cls-1" d="M135.915,100.847a3.311,3.311,0,0,1-.735,2.273,2.769,2.769,0,0,1-2.072.8,2.862,2.862,0,0,1-1.47-.4,2.58,2.58,0,0,1-1-1.069,3.255,3.255,0,0,1-.334-1.671,3.311,3.311,0,0,1,.735-2.273,2.669,2.669,0,0,1,2.072-.8,2.587,2.587,0,0,1,2.072.869,3.217,3.217,0,0,1,.735,2.273Zm-4.679,0a2.572,2.572,0,0,0,.468,1.738,1.938,1.938,0,0,0,2.807,0,3.461,3.461,0,0,0,0-3.476,1.938,1.938,0,0,0-2.807,0,2.689,2.689,0,0,0-.468,1.738Zm.267-4.612a.565.565,0,0,1,.134-.4.511.511,0,0,1,.334-.134.95.95,0,0,1,.4.134.537.537,0,0,1-.4.936.393.393,0,0,1-.334-.134A.565.565,0,0,1,131.5,96.235Zm2.139,0a.565.565,0,0,1,.134-.4.485.485,0,0,1,.668,0,.668.668,0,0,1,0,.8.485.485,0,0,1-.668,0A.565.565,0,0,1,133.642,96.235Z" transform="translate(-44.611 -95.232)"/>
      <path id="Pfad_135" data-name="Pfad 135" class="cls-1" d="M145.913,96.671a1.938,1.938,0,0,1-.8,1.4,7.329,7.329,0,0,1-.668.535c-.134.067-.134.267-.134.4s0,.2.067.267l.267.267a6.472,6.472,0,0,0,.6.468,3.9,3.9,0,0,1,1.069.936,1.611,1.611,0,0,1,.267,1,1.659,1.659,0,0,1-.535,1.337,2.122,2.122,0,0,1-1.537.468,3.092,3.092,0,0,1-1.671-.4v-.869a2.893,2.893,0,0,0,.8.334,4,4,0,0,0,.8.134q1.2,0,1.2-1a1,1,0,0,0-.267-.735,3.553,3.553,0,0,0-.869-.668,3.274,3.274,0,0,1-1-.8,1.065,1.065,0,0,1-.267-.8.933.933,0,0,1,.2-.6,2.552,2.552,0,0,1,.6-.6,5.464,5.464,0,0,0,.6-.535.759.759,0,0,0,.2-.535.735.735,0,0,0-.4-.668,2.344,2.344,0,0,0-1.069-.2c-1,0-1.537.4-1.537,1.2v6.617H140.9V97.005a1.775,1.775,0,0,1,.6-1.47A2.841,2.841,0,0,1,143.373,95a2.689,2.689,0,0,1,1.738.468,1.193,1.193,0,0,1,.8,1.2Z" transform="translate(-48.126 -95)"/>
      <path id="Pfad_136" data-name="Pfad 136" class="cls-1" d="M153.207,103.618a1.137,1.137,0,0,0,.468-.067,2.9,2.9,0,0,0,.334-.067v.668c-.067.067-.267.067-.468.134a1.661,1.661,0,0,1-.535.067c-1.2,0-1.738-.6-1.738-1.872V98.939H150.4v-.468l.869-.4.4-1.27h.535v1.4h1.738v.735H152.2v3.543a.976.976,0,0,0,.267.8,1.484,1.484,0,0,0,.735.334Z" transform="translate(-51.276 -95.597)"/>
      <path id="Pfad_137" data-name="Pfad 137" class="cls-1" d="M160.141,104.983a2.822,2.822,0,0,1-2.139-.8,3.039,3.039,0,0,1-.8-2.273,3.626,3.626,0,0,1,.735-2.339,2.321,2.321,0,0,1,1.938-.869,2.362,2.362,0,0,1,1.8.735,2.95,2.95,0,0,1,.668,1.938v.6h-4.211a2.2,2.2,0,0,0,.535,1.6,1.97,1.97,0,0,0,1.47.535,4.8,4.8,0,0,0,1.938-.4v.8a2.478,2.478,0,0,1-.936.267C160.809,104.782,160.542,104.983,160.141,104.983Zm-.267-5.481a1.611,1.611,0,0,0-1.2.468,2.455,2.455,0,0,0-.535,1.337h3.208a2,2,0,0,0-.4-1.337,1.347,1.347,0,0,0-1.069-.468Z" transform="translate(-53.531 -96.227)"/>
      <path id="Pfad_138" data-name="Pfad 138" class="cls-1" d="M170.107,98.8a2.506,2.506,0,0,1,.735.067l-.134.869a2.508,2.508,0,0,0-.668-.067,1.646,1.646,0,0,0-1.27.6,2.2,2.2,0,0,0-.535,1.47v3.208H167.3V98.934h.735l.134,1.136h.067a3.7,3.7,0,0,1,.8-.936,1.472,1.472,0,0,1,1.069-.334Z" transform="translate(-56.88 -96.26)"/>
      <path id="Pfad_139" data-name="Pfad 139" class="cls-1" d="M183.516,103.888l-1-2.54h-3.275l-1,2.54H177.3l3.208-8.088h.8l3.208,8.088Zm-1.337-3.342-.936-2.473c-.134-.334-.267-.735-.4-1.136a10.309,10.309,0,0,1-.334,1.136l-.936,2.473Z" transform="translate(-60.196 -95.265)"/>
      <path id="Pfad_140" data-name="Pfad 140" class="cls-1" d="M190.369,98.834v3.877a1.207,1.207,0,0,0,1.4,1.4,1.81,1.81,0,0,0,1.4-.535,2.766,2.766,0,0,0,.468-1.671V98.767h.936v6.016h-.735l-.134-.8h-.067a1.965,1.965,0,0,1-.8.668,3.122,3.122,0,0,1-1.136.2,2.5,2.5,0,0,1-1.671-.535,2.021,2.021,0,0,1-.535-1.671V98.7l.869.134Z" transform="translate(-64.242 -96.227)"/>
      <path id="Pfad_141" data-name="Pfad 141" class="cls-1" d="M201.507,103.618a1.138,1.138,0,0,0,.468-.067,2.9,2.9,0,0,0,.334-.067v.668c-.067.067-.267.067-.468.134a1.661,1.661,0,0,1-.535.067c-1.2,0-1.738-.6-1.738-1.872V98.939H198.7v-.468l.869-.4.4-1.27h.535v1.4h1.738v.735H200.5v3.543a.976.976,0,0,0,.267.8,1.484,1.484,0,0,0,.735.334Z" transform="translate(-67.292 -95.597)"/>
      <path id="Pfad_142" data-name="Pfad 142" class="cls-1" d="M211.115,101.841a3.311,3.311,0,0,1-.735,2.273,2.669,2.669,0,0,1-2.072.8,2.862,2.862,0,0,1-1.47-.4,2.58,2.58,0,0,1-1-1.069,4.128,4.128,0,0,1-.334-1.671,3.311,3.311,0,0,1,.735-2.273,2.669,2.669,0,0,1,2.072-.8,2.587,2.587,0,0,1,2.072.869,3.217,3.217,0,0,1,.735,2.273Zm-4.679,0a2.572,2.572,0,0,0,.468,1.738,1.938,1.938,0,0,0,2.807,0,3.461,3.461,0,0,0,0-3.476,1.938,1.938,0,0,0-2.807,0,2.689,2.689,0,0,0-.468,1.738Z" transform="translate(-69.547 -96.227)"/>
      <path id="Pfad_143" data-name="Pfad 143" class="cls-1" d="M220.278,102.953h0a2.376,2.376,0,0,1-1.938.936,2.332,2.332,0,0,1-1.872-.8,3.3,3.3,0,0,1-.668-2.273,3.607,3.607,0,0,1,.668-2.339,2.146,2.146,0,0,1,1.872-.8,2.321,2.321,0,0,1,1.938.869h.067l-.067-.468V95.2h.936v8.556h-.735l-.2-.8Zm-1.8.134a1.684,1.684,0,0,0,1.4-.535,2.3,2.3,0,0,0,.4-1.6v-.2a2.991,2.991,0,0,0-.4-1.8,1.714,1.714,0,0,0-1.4-.535,1.552,1.552,0,0,0-1.27.6,2.693,2.693,0,0,0-.4,1.738,3.184,3.184,0,0,0,.4,1.738,1.391,1.391,0,0,0,1.27.6Z" transform="translate(-72.963 -95.066)"/>
      <path id="Pfad_144" data-name="Pfad 144" class="cls-1" d="M226.7,96.2a.966.966,0,0,1,.134-.468c.067-.134.267-.134.4-.134a.95.95,0,0,1,.4.134.564.564,0,0,1,.134.468.966.966,0,0,1-.134.468c-.067.134-.267.134-.4.134a.95.95,0,0,1-.4-.134c-.134-.067-.134-.267-.134-.468Zm1,7.62h-.936V97.806h.936Z" transform="translate(-76.577 -95.199)"/>
      <path id="Pfad_145" data-name="Pfad 145" class="cls-1" d="M234.845,103.278a1.468,1.468,0,0,1-.6,1.27,2.772,2.772,0,0,1-1.8.468,3.541,3.541,0,0,1-1.872-.4v-.869a3.865,3.865,0,0,0,.936.334,5.244,5.244,0,0,0,.936.134,2.663,2.663,0,0,0,1.136-.2.735.735,0,0,0,.4-.668.64.64,0,0,0-.334-.6c-.267-.134-.6-.334-1.2-.6a7.478,7.478,0,0,1-1.2-.535,1.368,1.368,0,0,1-.535-.535,1.347,1.347,0,0,1-.2-.735,1.313,1.313,0,0,1,.6-1.136,2.939,2.939,0,0,1,1.671-.4,5.036,5.036,0,0,1,1.938.4l-.334.735a4.316,4.316,0,0,0-1.671-.4,2.046,2.046,0,0,0-1,.2.682.682,0,0,0-.334.535.95.95,0,0,0,.134.4c.067.134.2.2.4.334a5.973,5.973,0,0,0,1.069.468,4.078,4.078,0,0,1,1.47.8,1.36,1.36,0,0,1,.4,1Z" transform="translate(-77.837 -96.26)"/>
      <path id="Pfad_146" data-name="Pfad 146" class="cls-1" d="M241.507,105.016a2.669,2.669,0,0,1-2.072-.8,3.311,3.311,0,0,1-.735-2.273,3.5,3.5,0,0,1,.735-2.339,2.669,2.669,0,0,1,2.072-.8c.267,0,.6.067.869.067a1.583,1.583,0,0,1,.668.2l-.267.8c-.2-.067-.4-.134-.668-.2a2.508,2.508,0,0,0-.668-.067c-1.27,0-1.872.8-1.872,2.339a2.689,2.689,0,0,0,.468,1.738,1.594,1.594,0,0,0,1.337.6,4.245,4.245,0,0,0,1.537-.334v.8a2.612,2.612,0,0,1-1.4.267Z" transform="translate(-80.556 -96.26)"/>
      <path id="Pfad_147" data-name="Pfad 147" class="cls-1" d="M252.415,101.841a3.311,3.311,0,0,1-.735,2.273,2.669,2.669,0,0,1-2.072.8,2.862,2.862,0,0,1-1.47-.4,2.58,2.58,0,0,1-1-1.069,4.127,4.127,0,0,1-.334-1.671,3.311,3.311,0,0,1,.735-2.273,2.669,2.669,0,0,1,2.072-.8,2.587,2.587,0,0,1,2.072.869,3.217,3.217,0,0,1,.735,2.273Zm-4.612,0a2.572,2.572,0,0,0,.468,1.738,1.938,1.938,0,0,0,2.807,0,3.461,3.461,0,0,0,0-3.476,1.938,1.938,0,0,0-2.807,0,2.689,2.689,0,0,0-.468,1.738Z" transform="translate(-83.242 -96.227)"/>
      <path id="Pfad_148" data-name="Pfad 148" class="cls-1" d="M258.569,98.834v3.877a1.207,1.207,0,0,0,1.4,1.4,1.81,1.81,0,0,0,1.4-.535,2.766,2.766,0,0,0,.468-1.671V98.767h.936v6.016h-.735l-.134-.8h-.067a1.965,1.965,0,0,1-.8.668,3.123,3.123,0,0,1-1.136.2,2.5,2.5,0,0,1-1.671-.535,2.021,2.021,0,0,1-.535-1.671V98.7l.869.134Z" transform="translate(-86.857 -96.227)"/>
      <path id="Pfad_149" data-name="Pfad 149" class="cls-1" d="M272.311,104.882v-3.877a1.207,1.207,0,0,0-1.4-1.4,1.533,1.533,0,0,0-1.4.535,2.766,2.766,0,0,0-.468,1.671v3.141H268.1V98.934h.735l.134.8h.067a1.965,1.965,0,0,1,.8-.668,3.149,3.149,0,0,1,1.136-.267,2.5,2.5,0,0,1,1.671.535,2.107,2.107,0,0,1,.535,1.671v3.944l-.869-.067Z" transform="translate(-90.305 -96.26)"/>
      <path id="Pfad_150" data-name="Pfad 150" class="cls-1" d="M280.207,103.618a1.138,1.138,0,0,0,.468-.067,2.9,2.9,0,0,0,.334-.067v.668c-.067.067-.267.067-.468.134a1.472,1.472,0,0,1-.535.067c-1.2,0-1.738-.6-1.738-1.872V98.939H277.4v-.468l.869-.4.4-1.27h.535v1.4h1.738v.735H279.2v3.543a.976.976,0,0,0,.267.8,1.257,1.257,0,0,0,.735.334Z" transform="translate(-93.389 -95.597)"/>
      <path id="Pfad_151" data-name="Pfad 151" class="cls-1" d="M287.041,104.983a2.822,2.822,0,0,1-2.139-.8,3.039,3.039,0,0,1-.8-2.273,3.626,3.626,0,0,1,.735-2.339,2.321,2.321,0,0,1,1.938-.869,2.468,2.468,0,0,1,1.8.735,2.637,2.637,0,0,1,.668,1.938v.6h-4.211a2.2,2.2,0,0,0,.535,1.6,1.97,1.97,0,0,0,1.47.535,4.794,4.794,0,0,0,1.938-.4v.8a2.869,2.869,0,0,1-.936.267C287.776,104.782,287.442,104.983,287.041,104.983Zm-.267-5.481a1.611,1.611,0,0,0-1.2.468,2.455,2.455,0,0,0-.535,1.337h3.208a2,2,0,0,0-.4-1.337,1.252,1.252,0,0,0-1.069-.468Z" transform="translate(-95.611 -96.227)"/>
      <path id="Pfad_152" data-name="Pfad 152" class="cls-1" d="M297.007,98.8a2.506,2.506,0,0,1,.735.067l-.134.869a2.507,2.507,0,0,0-.668-.067,1.646,1.646,0,0,0-1.27.6,2.2,2.2,0,0,0-.535,1.47v3.208H294.2V98.934h.735l.134,1.136h.067a3.7,3.7,0,0,1,.8-.936,1.472,1.472,0,0,1,1.069-.334Z" transform="translate(-98.96 -96.26)"/>
    </g>
    <path id="Pfad_153" data-name="Pfad 153" class="cls-1" d="M246.249,74.988l-1-2.54h-3.208l-1,2.54H240.1l3.208-8.088h.8l3.141,8.088Zm-1.27-3.409-.936-2.473a10.826,10.826,0,0,1-.4-1.136,10.309,10.309,0,0,1-.334,1.136l-.936,2.473Z" transform="translate(-78.954 -21.322)"/>
    <path id="Pfad_154" data-name="Pfad 154" class="cls-1" d="M253.809,70.677h2.406V74.62a7.3,7.3,0,0,1-1.136.334,7.516,7.516,0,0,1-1.337.134,2.97,2.97,0,0,1-2.473-1.069,4.681,4.681,0,0,1-.869-3.075,4.486,4.486,0,0,1,.468-2.206,3.913,3.913,0,0,1,1.27-1.47,3.627,3.627,0,0,1,1.938-.468,4.3,4.3,0,0,1,2.072.468l-.334.8a3.822,3.822,0,0,0-1.8-.468,2.367,2.367,0,0,0-2.005.869,3.824,3.824,0,0,0-.735,2.406,3.765,3.765,0,0,0,.668,2.473,2.564,2.564,0,0,0,2.005.869,5.088,5.088,0,0,0,1.4-.2V71.546h-1.537v-.869Z" transform="translate(-82.369 -21.289)"/>
    <path id="Pfad_155" data-name="Pfad 155" class="cls-1" d="M25.929,39.323h-13.5l2.206-5.013h9.09l-6.149-13.5L9.219,39.323H2L17.707,4.7,40.032,54.229H32.68Z" transform="translate(0 -0.696)"/>
    <path id="Pfad_156" data-name="Pfad 156" class="cls-1" d="M51,45.261V34.5h7.352V53.015c.134,6.55,10.895,6.417,11.229.134V34.567h7.486V53.215c.4,6.885-6.149,14.237-17.445,11.162l-.067-.067-.067-.067C59.556,64.177,51.067,45.261,51,45.261Z" transform="translate(-16.248 -10.578)"/>
    <path id="Pfad_157" data-name="Pfad 157" class="cls-1" d="M216.4,35.321V14.4h9.692l10.026,22.325V14.4h8.823V45.481H232.174L223.619,26.5V51.429Z" transform="translate(-71.095 -3.913)"/>
    <path id="Pfad_158" data-name="Pfad 158" class="cls-1" d="M264.4,45.481V38.061h7.419c10.227-.735,10.895-15.306,0-16.242H264.4V14.4h7.419c21.456-.067,21.723,31.615,0,31.014l-7.419.067Z" transform="translate(-87.011 -3.913)"/>
    <path id="Pfad_159" data-name="Pfad 159" class="cls-1" d="M200.278,54.759,194,40.79H180.627l2.206-4.879h8.957l-5.949-13.569L177.419,40.79H170.2L185.841,6.3,207.7,54.759Z" transform="translate(-55.775 -1.227)"/>
    <path id="Pfad_160" data-name="Pfad 160" class="cls-1" d="M135.347,41.568V19.176h0A17.266,17.266,0,0,0,103.6,10.487H78.8v6.149H90.163V40.231h7.352V16.636h3.609a16.163,16.163,0,0,0-.267,3.141A17.23,17.23,0,0,0,118.1,36.956a16.775,16.775,0,0,0,8.89-2.473V47.717h16.977l2.74-6.149H135.347Zm-17.312-9.692a12.1,12.1,0,1,1,8.957-20.386V27.866A11.974,11.974,0,0,1,118.035,31.876Z" transform="translate(-25.467)"/>
  </g>
</svg>
